<?xml version="1.0" standalone="no"?>
<!DOCTYPE svg PUBLIC "-//W3C//DTD SVG 20010904//EN"
 "http://www.w3.org/TR/2001/REC-SVG-20010904/DTD/svg10.dtd">
<svg version="1.0" xmlns="http://www.w3.org/2000/svg"
 width="1152.000000pt" height="1152.000000pt" viewBox="0 0 1152.000000 1152.000000"
 preserveAspectRatio="xMidYMid meet">
<metadata>
Created by potrace 1.14, written by Peter Selinger 2001-2017
</metadata>
<g transform="translate(0.000000,1152.000000) scale(0.100000,-0.100000)"
fill="#000000" stroke="none">
<path d="M4538 10555 c-1 -2 -46 -6 -98 -10 -52 -3 -108 -8 -125 -10 -16 -2
-59 -7 -95 -11 -84 -9 -105 -12 -105 -14 0 -1 -13 -3 -30 -5 -16 -2 -50 -7
-75 -11 -25 -4 -55 -8 -67 -8 -13 -1 -23 -4 -23 -7 0 -3 -6 -6 -12 -6 -12 0
-54 -7 -108 -18 -44 -8 -293 -73 -342 -88 -27 -8 -48 -13 -48 -10 0 3 -6 1
-12 -5 -7 -5 -29 -13 -48 -18 -43 -10 -41 -9 -65 -18 -11 -4 -42 -16 -70 -26
-95 -34 -390 -153 -395 -159 -3 -3 -10 -7 -16 -8 -6 -1 -58 -25 -115 -54 -161
-79 -213 -107 -226 -118 -7 -6 -15 -11 -19 -11 -3 0 -18 -9 -32 -19 -15 -10
-29 -19 -32 -18 -3 0 -24 -12 -48 -27 -24 -15 -59 -36 -78 -47 -19 -10 -41
-24 -47 -29 -7 -6 -41 -29 -77 -52 -36 -23 -67 -45 -70 -49 -3 -3 -10 -8 -16
-10 -6 -2 -24 -14 -40 -26 -205 -157 -272 -210 -285 -225 -9 -10 -19 -18 -23
-18 -3 0 -14 -8 -24 -17 -10 -10 -41 -38 -68 -61 -79 -70 -294 -284 -354 -352
-30 -35 -62 -70 -71 -79 -28 -28 -144 -174 -213 -266 -37 -49 -73 -97 -79
-105 -17 -21 -150 -221 -163 -245 -6 -11 -22 -38 -36 -60 -14 -22 -25 -43 -24
-46 1 -4 -6 -15 -15 -25 -9 -11 -27 -39 -39 -64 -13 -25 -25 -47 -29 -50 -8
-7 -49 -93 -47 -101 0 -4 -6 -15 -15 -25 -21 -26 -143 -290 -137 -296 2 -2 -8
-20 -20 -40 -13 -21 -21 -38 -18 -38 3 0 -8 -31 -24 -70 -16 -38 -26 -70 -22
-70 4 0 2 -4 -3 -8 -10 -6 -33 -71 -35 -97 -1 -5 -8 -21 -17 -34 -8 -13 -10
-21 -5 -17 6 3 4 -7 -5 -24 -14 -28 -94 -311 -107 -377 -3 -15 -15 -71 -27
-123 -11 -52 -22 -113 -24 -135 -2 -22 -4 -40 -5 -40 -7 0 -34 -192 -46 -320
-15 -158 -18 -234 -18 -465 0 -237 7 -430 19 -490 2 -14 7 -56 11 -95 7 -82
11 -111 19 -145 3 -14 8 -45 11 -70 3 -25 7 -53 10 -62 3 -10 7 -30 10 -45 2
-16 10 -53 16 -83 6 -30 11 -59 9 -64 -1 -4 4 -14 10 -22 6 -8 9 -14 6 -14 -3
0 2 -26 10 -57 8 -32 17 -65 19 -73 2 -8 11 -42 20 -75 9 -33 17 -64 19 -70 1
-5 5 -17 8 -25 3 -8 19 -60 36 -115 17 -55 35 -109 40 -120 5 -11 24 -58 41
-105 18 -47 38 -98 45 -115 7 -16 23 -55 36 -85 13 -30 31 -70 41 -88 10 -18
18 -39 18 -46 0 -7 9 -25 20 -39 12 -15 21 -29 20 -32 -1 -10 95 -194 139
-265 12 -19 24 -43 27 -52 4 -10 10 -18 14 -18 4 0 10 -8 13 -18 4 -17 132
-219 147 -232 3 -3 10 -12 15 -21 55 -88 232 -319 277 -361 16 -16 26 -28 23
-28 -4 0 0 -6 7 -14 7 -7 51 -55 98 -106 142 -156 409 -410 431 -410 5 0 9 -4
9 -8 0 -15 263 -218 400 -309 19 -12 40 -27 47 -32 6 -6 35 -25 65 -43 29 -17
55 -34 58 -37 3 -4 16 -12 29 -19 13 -8 38 -22 56 -32 18 -10 43 -24 56 -32
13 -7 26 -15 29 -18 3 -3 28 -16 55 -30 28 -14 58 -31 68 -39 9 -8 17 -11 17
-7 0 4 13 -2 29 -13 16 -12 31 -21 34 -21 3 0 56 -24 118 -54 149 -69 164 -76
294 -126 61 -23 119 -46 130 -50 11 -5 38 -14 60 -21 22 -6 45 -14 50 -18 6
-3 16 -6 23 -7 8 -2 21 -6 30 -10 9 -4 24 -8 32 -9 8 -1 40 -10 70 -19 93 -29
270 -74 270 -69 0 3 7 0 15 -7 8 -7 15 -10 15 -7 0 3 26 -1 58 -8 31 -7 71
-16 87 -19 17 -3 44 -7 60 -10 98 -18 159 -27 280 -42 22 -2 57 -6 77 -9 113
-14 260 -20 488 -20 268 0 383 6 580 31 30 4 69 8 85 10 17 1 31 3 33 4 1 1
11 4 22 5 11 1 21 3 23 5 1 1 16 3 32 5 43 5 96 14 125 21 31 8 86 7 125 -1
39 -8 68 -13 140 -25 56 -9 91 -14 190 -26 22 -2 57 -6 77 -9 113 -14 260 -20
488 -20 268 0 383 6 580 31 30 4 69 8 85 10 17 1 31 3 33 4 1 1 11 4 22 5 11
1 21 3 23 5 1 1 16 3 32 5 33 3 71 9 155 27 30 6 64 12 75 14 11 2 40 8 65 15
25 6 52 12 60 14 8 2 17 4 20 6 3 1 10 3 15 4 29 4 122 29 136 36 9 4 29 11
45 14 46 10 48 10 59 17 6 3 26 9 45 14 42 10 41 9 60 17 46 18 267 98 275
100 6 2 20 8 31 15 12 6 24 8 28 5 3 -3 6 -2 6 4 0 6 12 14 26 17 27 7 148 60
174 77 8 5 26 14 40 19 42 17 195 95 200 101 3 4 32 21 65 38 33 17 74 40 90
51 17 11 37 23 45 27 8 3 34 19 57 35 23 15 46 28 52 28 6 0 11 4 11 8 0 5 17
18 38 30 21 11 48 30 61 41 13 12 30 21 36 21 7 0 15 7 19 15 3 8 12 15 20 15
8 0 16 3 18 8 2 4 39 34 83 67 44 33 85 64 92 70 25 21 43 36 100 82 32 26 72
59 88 74 169 154 257 240 359 350 91 100 109 120 161 184 26 32 53 65 59 72
20 22 31 37 94 123 35 47 68 92 75 100 17 21 149 220 163 245 6 11 22 38 36
60 14 22 27 45 29 50 4 13 66 117 76 130 5 6 17 30 28 55 11 25 22 47 25 50 4
4 62 118 65 130 1 3 14 32 29 65 31 65 49 107 50 115 1 3 5 10 9 16 4 7 23 54
42 105 19 52 39 103 44 114 5 11 16 43 26 70 9 28 19 57 22 65 8 19 7 18 17
60 5 19 11 40 14 45 4 6 7 16 9 24 1 8 8 35 17 60 8 25 17 57 20 71 3 14 17
70 31 125 14 55 27 111 30 125 3 14 7 36 10 50 7 32 16 78 20 110 2 14 4 25 5
25 2 0 7 30 14 90 2 22 5 40 6 40 2 0 5 22 14 105 4 36 9 79 11 95 20 158 27
658 12 830 -4 44 -9 107 -12 140 -3 33 -8 76 -10 95 -3 19 -8 53 -11 75 -3 22
-7 49 -9 60 -2 11 -6 43 -10 70 -3 28 -8 58 -11 67 -3 10 -7 30 -10 45 -2 16
-10 53 -16 83 -6 30 -12 60 -13 65 -1 6 -3 12 -4 15 -1 3 -5 16 -7 30 -3 14
-18 77 -35 140 -17 63 -32 120 -34 125 -1 6 -4 17 -8 25 -3 8 -22 67 -42 130
-21 63 -42 126 -48 140 -6 14 -11 27 -11 30 -2 10 -48 125 -67 167 -11 24 -19
45 -19 47 0 6 -45 104 -94 206 -17 36 -34 67 -38 68 -5 2 -8 12 -8 23 0 10 -5
19 -11 19 -5 0 -8 4 -5 9 4 5 3 11 -1 13 -5 1 -21 28 -36 58 -41 78 -71 134
-77 140 -10 10 -41 65 -47 83 -3 9 -9 17 -13 17 -4 0 -13 14 -20 30 -7 17 -16
30 -21 30 -5 0 -9 5 -9 11 0 12 -81 132 -92 137 -5 2 -8 8 -8 13 0 11 -60 92
-72 97 -5 2 -8 10 -8 18 0 8 -7 17 -15 20 -8 4 -15 11 -15 18 0 6 -8 19 -17
28 -10 9 -27 29 -38 43 -27 35 -66 84 -85 104 -8 9 -32 38 -53 63 -98 122
-381 403 -507 504 -19 16 -47 41 -63 56 -15 15 -31 28 -35 28 -4 0 -21 12 -38
28 -56 50 -84 72 -84 67 0 -5 -38 25 -66 53 -7 6 -16 12 -21 12 -5 0 -24 13
-43 30 -19 16 -40 29 -47 30 -6 0 -13 3 -15 8 -3 8 -140 99 -213 142 -22 13
-43 29 -47 34 -4 6 -8 7 -8 3 0 -5 -12 0 -27 11 -16 10 -64 38 -108 62 -44 24
-86 47 -92 53 -7 5 -13 6 -13 2 0 -4 -6 -2 -13 4 -18 15 -280 141 -293 141 -2
0 -23 9 -47 19 -36 16 -70 30 -87 36 -3 1 -18 7 -35 14 -16 6 -41 15 -55 20
-14 5 -34 12 -45 17 -11 4 -24 8 -30 10 -102 33 -204 67 -220 74 -11 5 -31 11
-45 13 -14 3 -77 19 -140 36 -63 16 -127 32 -142 35 -16 4 -40 8 -55 11 -16 3
-41 9 -58 14 -16 4 -38 7 -47 5 -10 -1 -18 1 -18 6 0 5 -8 7 -17 5 -10 -1 -22
0 -27 3 -6 3 -19 6 -30 7 -12 1 -41 5 -66 9 -91 13 -116 17 -155 21 -201 24
-317 30 -575 30 -262 0 -454 -10 -580 -31 -19 -3 -55 -8 -80 -10 -25 -3 -67
-9 -95 -14 -95 -18 -120 -22 -142 -24 -12 -1 -25 -4 -28 -7 -3 -4 -22 -4 -43
-1 -20 2 -47 5 -59 5 -13 1 -23 4 -23 8 0 4 -8 6 -17 4 -10 -1 -22 0 -27 3 -6
3 -19 6 -30 7 -12 1 -41 5 -66 9 -103 15 -117 17 -150 21 -19 2 -64 6 -100 10
-36 3 -83 8 -105 11 -47 6 -632 14 -637 9z"/>
</g>
</svg>
