<svg width="46" height="46" viewBox="0 0 46 46" fill="none" xmlns="http://www.w3.org/2000/svg">
<path d="M38.8438 6.66156C35.6606 3.47981 31.6054 1.31341 27.191 0.436313C22.7766 -0.440781 18.2012 0.0108223 14.0435 1.73402C9.88575 3.45721 6.33235 6.3746 3.83264 10.1173C1.33292 13.86 -0.000842563 18.2598 3.99328e-07 22.7605C-3.65126e-07 28.7969 2.39716 34.5862 6.66446 38.8557C10.9318 43.1251 16.7199 45.5252 22.7563 45.5282C25.7434 45.5295 28.7019 44.9456 31.4646 43.8095C34.2185 42.647 36.7235 40.9666 38.8438 38.8595C40.9581 36.7455 42.6354 34.2357 43.7797 31.4734C44.924 28.7111 45.513 25.7504 45.513 22.7605C45.513 19.7706 44.924 16.81 43.7797 14.0477C42.6354 11.2854 40.9581 8.77558 38.8438 6.66156V6.66156ZM37.2396 37.2324C33.9626 40.5234 29.6628 42.6006 25.0479 43.122V28.0886H29.3563C29.964 28.0886 30.5469 27.8472 30.9767 27.4174C31.4065 26.9877 31.6479 26.4048 31.6479 25.797C31.6479 25.1892 31.4065 24.6063 30.9767 24.1765C30.5469 23.7468 29.964 23.5053 29.3563 23.5053H25.0479V17.2261C25.0479 16.6184 25.2894 16.0355 25.7191 15.6057C26.1489 15.1759 26.7318 14.9345 27.3396 14.9345H30.0896C30.6974 14.9345 31.2803 14.693 31.71 14.2633C32.1398 13.8335 32.3813 13.2506 32.3813 12.6428C32.3813 12.035 32.1398 11.4521 31.71 11.0224C31.2803 10.5926 30.6974 10.3511 30.0896 10.3511H26.1938C24.6743 10.3511 23.217 10.9548 22.1426 12.0292C21.0682 13.1036 20.4646 14.5608 20.4646 16.0803V23.5053H16.1792C15.5714 23.5053 14.9885 23.7468 14.5587 24.1765C14.1289 24.6063 13.8875 25.1892 13.8875 25.797C13.8875 26.4048 14.1289 26.9877 14.5587 27.4174C14.9885 27.8472 15.5714 28.0886 16.1792 28.0886H20.4646V43.122C16.2087 42.6364 12.2129 40.8261 9.04165 37.9466C5.87038 35.0672 3.68388 31.2642 2.79102 27.0748C1.89816 22.8854 2.34405 18.5214 4.06572 14.5991C5.78738 10.6769 8.69781 7.39462 12.3859 5.21603C16.074 3.03743 20.3533 2.07258 24.6194 2.45777C28.8856 2.84296 32.9229 4.55872 36.1611 7.36269C39.3993 10.1667 41.6747 13.9171 42.666 18.0843C43.6572 22.2515 43.3142 26.6249 41.6854 30.5866C40.648 33.0689 39.1381 35.3261 37.2396 37.2324V37.2324Z" fill="#22A39F"/>
</svg>
