<svg width="43" height="43" viewBox="0 0 43 43" fill="none" xmlns="http://www.w3.org/2000/svg">
<path d="M21.5 11.1875C19.4604 11.1875 17.4666 11.7923 15.7707 12.9255C14.0748 14.0586 12.753 15.6692 11.9725 17.5536C11.192 19.4379 10.9877 21.5114 11.3857 23.5119C11.7836 25.5123 12.7657 27.3498 14.208 28.792C15.6502 30.2343 17.4877 31.2164 19.4881 31.6143C21.4886 32.0123 23.5621 31.808 25.4464 31.0275C27.3308 30.247 28.9414 28.9252 30.0745 27.2293C31.2077 25.5334 31.8125 23.5396 31.8125 21.5C31.8125 18.765 30.726 16.1419 28.792 14.208C26.8581 12.274 24.235 11.1875 21.5 11.1875ZM21.5 28.375C20.1403 28.375 18.811 27.9718 17.6805 27.2164C16.5499 26.4609 15.6687 25.3872 15.1483 24.1309C14.628 22.8747 14.4918 21.4924 14.7571 20.1588C15.0224 18.8251 15.6772 17.6001 16.6386 16.6386C17.6001 15.6772 18.8251 15.0224 20.1588 14.7571C21.4924 14.4918 22.8747 14.628 24.1309 15.1483C25.3872 15.6687 26.4609 16.5499 27.2164 17.6805C27.9718 18.811 28.375 20.1403 28.375 21.5C28.3693 23.3216 27.6432 25.067 26.3551 26.3551C25.067 27.6432 23.3216 28.3693 21.5 28.375ZM30.9531 0.015625H12.0469C8.85599 0.015625 5.79579 1.2832 3.5395 3.5395C1.2832 5.79579 0.015625 8.85599 0.015625 12.0469V30.9531C0.015625 34.144 1.2832 37.2042 3.5395 39.4605C5.79579 41.7168 8.85599 42.9844 12.0469 42.9844H30.9531C34.144 42.9844 37.2042 41.7168 39.4605 39.4605C41.7168 37.2042 42.9844 34.144 42.9844 30.9531V12.0469C42.9844 8.85599 41.7168 5.79579 39.4605 3.5395C37.2042 1.2832 34.144 0.015625 30.9531 0.015625V0.015625ZM39.5469 30.9531C39.5469 32.0817 39.3246 33.1992 38.8927 34.2418C38.4608 35.2845 37.8278 36.2318 37.0298 37.0298C36.2318 37.8278 35.2845 38.4608 34.2418 38.8927C33.1992 39.3246 32.0817 39.5469 30.9531 39.5469H12.0469C10.9183 39.5469 9.80083 39.3246 8.75819 38.8927C7.71555 38.4608 6.76818 37.8278 5.97018 37.0298C5.17217 36.2318 4.53916 35.2845 4.10729 34.2418C3.67541 33.1992 3.45313 32.0817 3.45312 30.9531V12.0469C3.45312 9.76767 4.35854 7.58182 5.97018 5.97018C7.58182 4.35854 9.76767 3.45313 12.0469 3.45312H30.9531C32.0817 3.45312 33.1992 3.67541 34.2418 4.10729C35.2845 4.53916 36.2318 5.17217 37.0298 5.97018C37.8278 6.76818 38.4608 7.71555 38.8927 8.75819C39.3246 9.80083 39.5469 10.9183 39.5469 12.0469V30.9531ZM35.25 10.3281C35.25 10.838 35.0988 11.3365 34.8155 11.7605C34.5322 12.1844 34.1296 12.5149 33.6585 12.71C33.1874 12.9051 32.669 12.9562 32.1689 12.8567C31.6688 12.7572 31.2094 12.5117 30.8489 12.1511C30.4883 11.7906 30.2428 11.3312 30.1433 10.8311C30.0438 10.331 30.0949 9.81261 30.29 9.34152C30.4851 8.87043 30.8156 8.46778 31.2395 8.18449C31.6635 7.9012 32.162 7.75 32.6719 7.75C33.3556 7.75 34.0114 8.02162 34.4949 8.50512C34.9784 8.98861 35.25 9.64436 35.25 10.3281Z" fill="#22A39F"/>
</svg>
