<svg width="55" height="55" viewBox="0 0 55 55" fill="none" xmlns="http://www.w3.org/2000/svg">
<g clip-path="url(#clip0_428_2)">
<path fill-rule="evenodd" clip-rule="evenodd" d="M50.048 13.8793C50.1479 13.2727 50.0834 12.6505 49.8611 12.0773C49.6388 11.5042 49.2669 11.0011 48.7841 10.6206C48.3013 10.24 47.7252 9.99594 47.116 9.91371C46.5068 9.83148 45.8867 9.91412 45.3203 10.153L6.13275 26.653C3.40108 27.8035 3.26129 31.7543 6.13275 32.946C8.97606 34.1318 11.8608 35.2157 14.7815 36.1955C17.4582 37.0801 20.3777 37.8982 22.7175 38.1297C23.3569 38.8951 24.1613 39.6307 24.9817 40.3068C26.2353 41.338 27.7432 42.3991 29.3015 43.4166C32.4228 45.4562 35.8855 47.4064 38.2184 48.676C41.0073 50.1885 44.3463 48.4468 44.8459 45.4057L50.048 13.8793ZM10.5259 29.7743L45.185 15.1832L40.3313 44.6082C38.0419 43.3639 34.7442 41.5007 31.8063 39.5803C30.4522 38.711 29.1449 37.7709 27.8898 36.7639C27.5543 36.4899 27.2287 36.204 26.9136 35.9068L35.9909 26.8318C36.4209 26.4021 36.6626 25.8192 36.6628 25.2112C36.663 24.6033 36.4217 24.0202 35.992 23.5902C35.5623 23.1602 34.9794 22.9185 34.3715 22.9183C33.7636 22.9181 33.1805 23.1594 32.7505 23.5891L22.8115 33.528C21.1294 33.3126 18.7873 32.6893 16.2161 31.8414C14.3018 31.2037 12.4052 30.5144 10.5282 29.7743H10.5259Z" fill="#22A39F"/>
</g>
<defs>
<clipPath id="clip0_428_2">
<rect width="55" height="55" fill="white"/>
</clipPath>
</defs>
</svg>
