<svg width="46" height="46" viewBox="0 0 46 46" fill="none" xmlns="http://www.w3.org/2000/svg">
<path d="M22.9167 41.25C27.779 41.25 32.4421 39.3185 35.8803 35.8803C39.3185 32.4421 41.25 27.779 41.25 22.9167C41.25 18.0544 39.3185 13.3912 35.8803 9.95304C32.4421 6.51488 27.779 4.58333 22.9167 4.58333C18.0544 4.58333 13.3912 6.51488 9.95304 9.95304C6.51488 13.3912 4.58333 18.0544 4.58333 22.9167C4.58333 27.779 6.51488 32.4421 9.95304 35.8803C13.3912 39.3185 18.0544 41.25 22.9167 41.25ZM22.9167 45.8333C10.2598 45.8333 0 35.5735 0 22.9167C0 10.2598 10.2598 0 22.9167 0C35.5735 0 45.8333 10.2598 45.8333 22.9167C45.8333 35.5735 35.5735 45.8333 22.9167 45.8333Z" fill="#22A39F"/>
<path d="M34.3776 15.9202C33.5343 16.2869 32.6291 16.539 31.678 16.649C32.6497 16.0761 33.3922 15.1686 33.7451 14.0892C32.8192 14.6288 31.8089 15.0084 30.7568 15.2121C30.3142 14.7482 29.7818 14.3793 29.1919 14.128C28.6021 13.8766 27.9673 13.748 27.3261 13.75C24.7297 13.75 22.6259 15.824 22.6259 18.3792C22.6259 18.7413 22.6672 19.0942 22.7474 19.4334C20.885 19.3449 19.0615 18.8692 17.3933 18.0367C15.725 17.2041 14.2486 16.033 13.0582 14.5979C12.6401 15.3017 12.42 16.1054 12.4211 16.924C12.4211 18.5281 13.253 19.949 14.5134 20.7763C13.7674 20.7529 13.0373 20.5543 12.3822 20.1965V20.2538C12.3893 21.3296 12.769 22.3698 13.4568 23.1971C14.1446 24.0244 15.0978 24.5878 16.1543 24.7913C15.4607 24.9747 14.735 25.0013 14.0299 24.8692C14.3373 25.7947 14.9252 26.6016 15.712 27.1778C16.4989 27.7539 17.4456 28.0708 18.4207 28.0844C16.7477 29.3736 14.6937 30.0701 12.5816 30.0644C12.2034 30.0644 11.8299 30.0415 11.4609 30.0002C13.6162 31.3644 16.1152 32.087 18.6659 32.0834C27.3147 32.0834 32.0424 25.0296 32.0424 18.9109L32.0264 18.3104C32.9483 17.6625 33.7449 16.8527 34.3776 15.9202Z" fill="#22A39F"/>
</svg>
